<svg id="cancel" xmlns="http://www.w3.org/2000/svg" width="20" height="20" viewBox="0 0 99.014 99.014">
  <circle id="Ellipse_2" data-name="Ellipse 2" cx="49.507" cy="49.507" r="49.507" transform="translate(0 0)" fill="#e24c4b"/>
  <path id="Path_1" data-name="Path 1" d="M137.961,88.456a49.652,49.652,0,0,1-49.507,49.507A48.716,48.716,0,0,1,49.777,119.4a48.844,48.844,0,0,0,30.942,10.83,49.652,49.652,0,0,0,49.507-49.507A48.844,48.844,0,0,0,119.4,49.779,48.714,48.714,0,0,1,137.961,88.456Z" transform="translate(-38.948 -38.949)" fill="#d1403f"/>
  <path id="Path_2" data-name="Path 2" d="M163.9,163.9a4.856,4.856,0,0,1-6.807,0l-15.78-15.78-15.78,15.78a4.813,4.813,0,1,1-6.807-6.807l15.78-15.78-15.78-15.78a4.813,4.813,0,1,1,6.807-6.807l15.78,15.78,15.78-15.78a4.813,4.813,0,1,1,6.807,6.807l-15.78,15.78,15.78,15.78A4.856,4.856,0,0,1,163.9,163.9Z" transform="translate(-91.807 -91.807)" fill="#fff"/>
</svg>
